<?xml version="1.0" encoding="utf-8"?>
<!-- Generator: Adobe Illustrator 21.0.0, SVG Export Plug-In . SVG Version: 6.00 Build 0)  -->
<svg version="1.1" id="Layer_1" xmlns="http://www.w3.org/2000/svg" xmlns:xlink="http://www.w3.org/1999/xlink" x="0px" y="0px"
	 viewBox="0 0 1500 1500" style="enable-background:new 0 0 1500 1500;" xml:space="preserve">
<style type="text/css">
	.st0{fill:#34657D;}
</style>
<g>
	
		<image style="overflow:visible;enable-background:new    ;" width="659" height="404" xlink:href="../../img/logo.png"  transform="matrix(1 0 0 1 420.5 459.2665)">
	</image>
</g>
<g>
	<path class="st0" d="M530.5,904.6l-4.7,0.7l-9.5,35.2h-2.4l-9.7-29.3l-9.2,29.3h-2.4l-10.1-35.3l-4.7-0.6v-2.3h15.3v2.3l-5.2,0.6
		l6.9,25.9l8.6-25.9l-5.7-0.7v-2.3H513v2.3l-5.7,0.7l8.3,26.1l7.2-26.1l-5.1-0.7v-2.3h12.8V904.6L530.5,904.6z"/>
	<path class="st0" d="M534.8,926.2c0.1,6.9,3.7,10.8,9.1,10.8c3.5,0,5.8-1.6,7.8-3.9l1.3,1.1c-2.1,4-5.7,6.5-10.8,6.5
		c-7.6,0-12.5-5.3-12.5-13.9s5.9-14.5,12.9-14.5c5.8,0,10.4,4,10.4,10.8c0,1.2-0.2,2.4-0.4,3.1L534.8,926.2L534.8,926.2z
		 M545.1,923.9c2.7,0,3.3-1.3,3.3-2.9c0-3.2-2.6-6.1-6.1-6.1c-3.1,0-6.8,2.5-7.4,9H545.1z"/>
	<path class="st0" d="M565.7,916.6c2.7-3,5.6-4.3,8.7-4.3c6,0,10.7,5.3,10.7,14s-5,14.4-11.6,14.4c-2.6,0-5.3-1-7.8-4l-0.4,3.7
		l-8.4-0.6v-2l4.2-0.8c0.1-2.8,0.1-6.5,0.1-9v-24l-4.6-0.6v-2l8.6-2.5l0.8,0.4l-0.2,8L565.7,916.6L565.7,916.6z M565.9,934.4
		c2.3,2.2,4.6,3.1,6.7,3.1c4,0,7.4-3.5,7.4-10.8c0-7.2-2.9-11.2-7.1-11.2c-1.7,0-3.9,0.7-7,3.3L565.9,934.4L565.9,934.4z"/>
	<path class="st0" d="M602,924.3c5.6,2.1,7.7,4.8,7.7,8.3c0,4.2-3.7,8.1-10.9,8.1c-3.1,0-5.6-0.7-8.4-2.1l-0.2-6.2h3.1l1.1,4.8
		c1.3,0.6,2.8,0.9,4.5,0.9c4.3,0,6.3-1.7,6.3-4.3c0-2.4-1.7-3.7-5.3-4.9l-2.6-0.9c-4.1-1.5-6.8-3.9-6.8-7.5c0-4.3,3.8-8.2,9.8-8.2
		c3,0,5.4,0.8,7.9,2.3l-0.2,5.7h-2.9l-0.9-4.5c-1.2-0.6-2.5-1-3.9-1c-3.4,0-5.2,1.6-5.2,4.1c0,2.2,1.3,3.3,5.2,4.7L602,924.3z"/>
	<path class="st0" d="M626.9,937.9v2h-13v-2l4.2-0.8c0.1-2.8,0.1-6.5,0.1-9v-2.8c0-3.1-0.1-4.8-0.2-7.1l-4.4-0.5v-2l8.7-3.4l0.8,0.6
		l-0.2,7.6v7.6c0,2.5,0.1,6.2,0.1,9L626.9,937.9z M616.8,902.7c0-2.2,1.6-3.6,3.8-3.6c2.1,0,3.8,1.4,3.8,3.6c0,2.1-1.7,3.6-3.8,3.6
		C618.4,906.3,616.8,904.8,616.8,902.7z"/>
	<path class="st0" d="M646.8,937.5c-1.5,1.9-3.8,2.9-6.6,2.9c-3.9,0-6.4-2-6.4-6.4c0-1.4,0.1-2.6,0.1-4.8v-13h-4.7v-2.5l5-0.6
		l1.5-7.6h3.4l-0.3,7.8h7.5v3h-7.6v17.1c0,2.9,1.2,4.1,3.1,4.1c1.2,0,2.4-0.5,3.8-1.5L646.8,937.5z"/>
	<path class="st0" d="M654.6,926.2c0.1,6.9,3.7,10.8,9.1,10.8c3.5,0,5.8-1.6,7.8-3.9l1.3,1.1c-2.1,4-5.7,6.5-10.8,6.5
		c-7.6,0-12.5-5.3-12.5-13.9s5.9-14.5,12.9-14.5c5.8,0,10.4,4,10.4,10.8c0,1.2-0.2,2.4-0.4,3.1L654.6,926.2L654.6,926.2z M665,923.9
		c2.7,0,3.3-1.3,3.3-2.9c0-3.2-2.6-6.1-6.1-6.1c-3.1,0-6.8,2.5-7.4,9H665z"/>
	<path class="st0" d="M721.9,929.9l-0.2,8.1c-3.5,1.9-7.4,2.7-11.3,2.7c-11.3,0-19-8.1-19-19.7c0-11.3,8.1-19.6,19-19.6
		c3.1,0,7.1,0.5,10.8,2.7l0.2,8.1h-3.5l-1.1-6.6c-1.9-1-3.8-1.4-5.7-1.4c-7.5,0-13.6,5.8-13.6,16.8s5.5,16.9,13.2,16.9
		c2.1,0,4.5-0.4,6.7-1.5l1.1-6.5H721.9z"/>
	<path class="st0" d="M752.4,926.6c0,9.3-6.3,14.2-12.9,14.2c-6.5,0-12.9-4.8-12.9-14.2c0-9.3,6.4-14.3,12.9-14.3
		S752.4,917.3,752.4,926.6z M732,926.6c0,7.5,2.7,11.6,7.5,11.6c4.9,0,7.6-4,7.6-11.6s-2.7-11.7-7.6-11.7
		C734.7,914.9,732,919.1,732,926.6z"/>
	<path class="st0" d="M803.9,937.9v2h-13v-2l4.2-0.8c0.1-2.8,0.1-6.4,0.1-9V923c0-5.2-1.5-6.7-4.7-6.7c-2.4,0-4.7,1-7.5,3.5
		c0.1,0.8,0.1,1.8,0.1,2.8v5.4c0,2.6,0.1,6.2,0.1,9l3.9,0.8v2h-13v-2l4.2-0.8c0.1-2.8,0.1-6.4,0.1-9v-4.9c0-5.1-1.3-6.8-4.6-6.8
		c-2.6,0-4.7,1-7.5,3.4v8.4c0,2.5,0.1,6.2,0.1,9l3.9,0.8v2h-13v-2l4.2-0.8c0.1-2.8,0.1-6.5,0.1-9v-2.9c0-3.1-0.1-4.8-0.2-7l-4.4-0.5
		v-2l7.9-3.4l0.8,0.6l0.5,4.5c2.7-3,6.4-5.1,9.8-5.1c3.5,0,5.7,1.6,6.6,5.3c2.9-3.5,6.6-5.3,10.2-5.3c4.5,0,7.2,2.9,7.2,9.8v6
		c0,2.6,0.1,6.2,0.1,9L803.9,937.9z"/>
	<path class="st0" d="M820.6,937.9v2h-13v-2l4.2-0.8c0.1-2.8,0.1-6.5,0.1-9v-2.8c0-3.1-0.1-4.8-0.2-7.1l-4.4-0.5v-2l8.7-3.4l0.8,0.6
		l-0.2,7.6v7.6c0,2.5,0.1,6.2,0.1,9L820.6,937.9z M810.4,902.7c0-2.2,1.6-3.6,3.8-3.6c2.1,0,3.8,1.4,3.8,3.6c0,2.1-1.7,3.6-3.8,3.6
		C812,906.3,810.4,904.8,810.4,902.7z"/>
	<path class="st0" d="M854.6,937.9v2h-13v-2l4.2-0.8c0.1-2.8,0.1-6.4,0.1-9v-4.9c0-5.2-1.3-6.8-4.7-6.8c-2.6,0-4.8,1-7.6,3.4v8.4
		c0,2.5,0.1,6.2,0.1,9l3.9,0.8v2h-13v-2l4.2-0.8c0.1-2.8,0.1-6.5,0.1-9v-2.9c0-3.1-0.1-4.8-0.2-7l-4.4-0.5v-2l7.9-3.4l0.8,0.6
		l0.5,4.5c2.8-3,6.6-5.1,10.1-5.1c4.8,0,7.2,3,7.2,10.4v5.4c0,2.6,0.1,6.2,0.1,9L854.6,937.9z"/>
	<path class="st0" d="M884.1,916.6h-5.4c0.8,1.3,1.2,3,1.2,4.9c0,5.9-4.3,9.2-10.2,9.2c-1.5,0-2.9-0.2-4.1-0.6c-0.7,1-1.1,2-1.1,3.2
		c0,2.1,1.1,3,4.5,3h5.7c6.2,0,9,2.7,9,7.2c0,4.9-4.7,9.7-13.9,9.7c-8.1,0-11.8-2.8-11.8-6.8c0-2.5,1.4-4.4,5.6-6.5
		c-2.4-1-3.4-3-3.4-4.9c0-2.1,1-3.9,3.5-5.8c-2.6-1.5-4.3-4-4.3-7.9c0-5.9,4.3-9.2,10.2-9.2c3,0,5.5,0.8,7.3,2.3l6.2-2.1l0.8,0.6
		L884.1,916.6L884.1,916.6z M868,940.8c-1.1,0-2.1-0.1-3-0.3c-1.6,1.8-2.2,3.3-2.2,5.2c0,3.7,3,5.1,7.4,5.1c6.1,0,9.4-2.5,9.4-5.7
		c0-2.5-1.6-4.3-5.6-4.3H868L868,940.8z M875.4,921.4c0-4-2-6.7-5.5-6.7s-5.7,2.9-5.7,7s2,6.9,5.4,6.9
		C873.2,928.5,875.4,925.5,875.4,921.4z"/>
	<path class="st0" d="M914.8,918.7c7.4,2.9,10.2,6,10.2,11.2c0,6.7-5.5,10.8-13.3,10.8c-4.2,0-8.4-1.3-11-3l0.3-7.9h3.5l1.1,6.6
		c1.7,1,3.4,1.4,5.8,1.4c5.3,0,8.7-2.5,8.7-6.9c0-3.5-2.1-5-6.9-6.9l-2.2-0.9c-5.8-2.3-9.7-5.5-9.7-11.2c0-6.6,5.4-10.6,12.6-10.6
		c3.8,0,6.8,1.1,9.2,2.9l-0.3,7.4h-3.4l-1.2-6.3c-1.5-0.8-2.9-1.1-4.6-1.1c-4.3,0-7.6,2.2-7.6,6.6c0,3.5,2.3,5.4,6.3,7L914.8,918.7z
		"/>
	<path class="st0" d="M955.6,926.6c0,9.3-6.3,14.2-12.9,14.2c-6.5,0-12.9-4.8-12.9-14.2c0-9.3,6.4-14.3,12.9-14.3
		C949.2,912.3,955.6,917.3,955.6,926.6z M935.1,926.6c0,7.5,2.7,11.6,7.5,11.6c4.9,0,7.6-4,7.6-11.6s-2.7-11.7-7.6-11.7
		C937.8,914.9,935.1,919.1,935.1,926.6z"/>
	<path class="st0" d="M986.4,926.6c0,9.3-6.3,14.2-12.9,14.2c-6.5,0-12.9-4.8-12.9-14.2c0-9.3,6.4-14.3,12.9-14.3
		S986.4,917.3,986.4,926.6z M966,926.6c0,7.5,2.7,11.6,7.5,11.6c4.9,0,7.6-4,7.6-11.6s-2.7-11.7-7.6-11.7
		C968.7,914.9,966,919.1,966,926.6z"/>
	<path class="st0" d="M1021.3,937.9v2h-13v-2l4.2-0.8c0.1-2.8,0.1-6.4,0.1-9v-4.9c0-5.2-1.3-6.8-4.7-6.8c-2.6,0-4.8,1-7.6,3.4v8.4
		c0,2.5,0.1,6.2,0.1,9l3.9,0.8v2h-13v-2l4.2-0.8c0.1-2.8,0.1-6.5,0.1-9v-2.9c0-3.1-0.1-4.8-0.2-7l-4.4-0.5v-2l7.9-3.4l0.8,0.6
		l0.5,4.5c2.8-3,6.6-5.1,10.1-5.1c4.8,0,7.2,3,7.2,10.4v5.4c0,2.6,0.1,6.2,0.1,9L1021.3,937.9z"/>
</g>
</svg>
